<svg width="62" height="55" viewBox="0 0 62 55" fill="none" xmlns="http://www.w3.org/2000/svg">
<g filter="url(#filter0_d)">
<path d="M41.8769 15.3541L40.9206 11.6141C40.4679 9.84356 38.8728 8.60498 37.0453 8.60498H24.7474C22.9199 8.60498 21.3248 9.84351 20.8721 11.614L19.9157 15.3541H14.6334V11.931H11.9965V15.3541V15.3541C10.0082 15.3541 8.3963 16.966 8.3963 18.9543V42.7851C8.3963 44.9942 10.1872 46.7851 12.3963 46.7851H49.3963C51.6054 46.7851 53.3963 44.9942 53.3963 42.7851V19.3541C53.3963 17.145 51.6054 15.3541 49.3963 15.3541H41.8769ZM17.4403 28.4187L19.4592 26.7224L20.8658 28.3969C21.8739 23.6884 26.0669 20.1469 31.0722 20.1469C35.34 20.1469 39.1366 22.7013 40.7445 26.6548L38.3018 27.6478C37.1003 24.6928 34.2623 22.7835 31.0722 22.7835C27.3202 22.7835 24.1789 25.4455 23.4371 28.9803L25.5613 27.236L27.2349 29.2738L21.8643 33.6846L17.4403 28.4187ZM40.9063 37.5342L40.1801 35.6743C39.6079 36.703 38.8611 37.6358 37.963 38.4265C36.063 40.1006 33.6158 41.0222 31.0722 41.0222C27.9792 41.0222 25.0641 39.6626 23.0739 37.2912L25.0933 35.5962C26.5815 37.3689 28.7607 38.3856 31.0722 38.3856C32.9734 38.3856 34.8018 37.6976 36.2197 36.4478C36.9933 35.767 37.6151 34.9451 38.0611 34.0356L35.3449 35.0965L34.3857 32.6402L40.8412 30.1194L43.3625 36.5747L40.9063 37.5342Z" fill="white"/>
</g>
<defs>
<filter id="filter0_d" x="-1" y="-4" width="64" height="64" filterUnits="userSpaceOnUse" color-interpolation-filters="sRGB">
<feFlood flood-opacity="0" result="BackgroundImageFix"/>
<feColorMatrix in="SourceAlpha" type="matrix" values="0 0 0 0 0 0 0 0 0 0 0 0 0 0 0 0 0 0 127 0"/>
<feOffset/>
<feGaussianBlur stdDeviation="4"/>
<feColorMatrix type="matrix" values="0 0 0 0 1 0 0 0 0 1 0 0 0 0 1 0 0 0 0.8 0"/>
<feBlend mode="normal" in2="BackgroundImageFix" result="effect1_dropShadow"/>
<feBlend mode="normal" in="SourceGraphic" in2="effect1_dropShadow" result="shape"/>
</filter>
</defs>
</svg>
