<svg width="62" height="55" viewBox="0 0 62 55" fill="none" xmlns="http://www.w3.org/2000/svg">
<path d="M41.8768 15.3541L40.9205 11.6141C40.4678 9.84356 38.8727 8.60498 37.0452 8.60498H24.7473C22.9198 8.60498 21.3247 9.84351 20.872 11.614L19.9156 15.3541H14.6333V11.931H11.9964V15.3541C10.0081 15.3541 8.39624 16.966 8.39624 18.9543V42.7851C8.39624 44.9942 10.1871 46.7851 12.3962 46.7851H49.3962C51.6053 46.7851 53.3962 44.9942 53.3962 42.7851V19.3541C53.3962 17.145 51.6053 15.3541 49.3962 15.3541H41.8768ZM17.4402 28.4187L19.4591 26.7224L20.8657 28.3969C21.8738 23.6884 26.0668 20.1469 31.0721 20.1469C35.3399 20.1469 39.1365 22.7013 40.7444 26.6548L38.3017 27.6478C37.1002 24.6928 34.2622 22.7835 31.0721 22.7835C27.3201 22.7835 24.1788 25.4455 23.437 28.9803L25.5612 27.236L27.2348 29.2738L21.8642 33.6846L17.4402 28.4187ZM40.9062 37.5342L40.18 35.6743C39.6078 36.703 38.861 37.6358 37.9629 38.4265C36.0629 40.1006 33.6157 41.0222 31.0721 41.0222C27.9791 41.0222 25.064 39.6626 23.0738 37.2912L25.0932 35.5962C26.5814 37.3689 28.7606 38.3856 31.0721 38.3856C32.9733 38.3856 34.8017 37.6976 36.2196 36.4478C36.9932 35.767 37.615 34.9451 38.061 34.0356L35.3448 35.0965L34.3856 32.6402L40.8411 30.1194L43.3624 36.5747L40.9062 37.5342Z" fill="white"/>
</svg>
