<svg width="40" height="41" viewBox="0 0 40 41" fill="none" xmlns="http://www.w3.org/2000/svg">
<path d="M12.02 9.33993C11.2799 8.59987 10.0801 8.59987 9.34 9.33993C8.59994 10.08 8.59994 11.2799 9.34 12.0199L27.6739 30.3538C28.4139 31.0939 29.6138 31.0939 30.3539 30.3538C31.0939 29.6137 31.0939 28.4139 30.3539 27.6738L12.02 9.33993Z" fill="white"/>
<path d="M30.6599 12.3308C31.4 11.5907 31.4 10.3909 30.6599 9.65079C29.9199 8.91073 28.72 8.91073 27.9799 9.65079L9.64608 27.9847C8.90602 28.7247 8.90602 29.9246 9.64608 30.6647C10.3861 31.4047 11.586 31.4047 12.3261 30.6647L30.6599 12.3308Z" fill="white"/>
</svg>
