<svg width="40" height="41" viewBox="0 0 40 41" fill="none" xmlns="http://www.w3.org/2000/svg">
<g filter="url(#filter0_d)">
<path d="M12.02 9.33993C11.2799 8.59987 10.0801 8.59987 9.34 9.33993C8.59994 10.08 8.59994 11.2799 9.34 12.0199L27.6739 30.3538C28.4139 31.0939 29.6138 31.0939 30.3539 30.3538C31.0939 29.6137 31.0939 28.4139 30.3539 27.6738L12.02 9.33993Z" fill="white"/>
<path d="M30.66 12.3308C31.4001 11.5907 31.4001 10.3909 30.66 9.65079C29.9199 8.91073 28.7201 8.91073 27.98 9.65079L9.64614 27.9847C8.90608 28.7247 8.90608 29.9246 9.64614 30.6647C10.3862 31.4047 11.5861 31.4047 12.3261 30.6647L30.66 12.3308Z" fill="white"/>
</g>
<defs>
<filter id="filter0_d" x="0" y="0" width="40" height="40.0047" filterUnits="userSpaceOnUse" color-interpolation-filters="sRGB">
<feFlood flood-opacity="0" result="BackgroundImageFix"/>
<feColorMatrix in="SourceAlpha" type="matrix" values="0 0 0 0 0 0 0 0 0 0 0 0 0 0 0 0 0 0 127 0"/>
<feOffset/>
<feGaussianBlur stdDeviation="4"/>
<feColorMatrix type="matrix" values="0 0 0 0 1 0 0 0 0 1 0 0 0 0 1 0 0 0 0.8 0"/>
<feBlend mode="normal" in2="BackgroundImageFix" result="effect1_dropShadow"/>
<feBlend mode="normal" in="SourceGraphic" in2="effect1_dropShadow" result="shape"/>
</filter>
</defs>
</svg>
