<svg width="385" height="409" viewBox="0 0 385 409" fill="none" xmlns="http://www.w3.org/2000/svg">
<path d="M343.665 331.661C343.665 331.661 353.359 330.396 356.73 330.818C360.102 331.45 386.022 317.541 384.969 309.111C383.915 300.471 382.44 304.896 375.486 308.268C368.531 311.429 361.788 315.223 361.156 311.219C360.523 307.214 367.056 307.847 368.531 303.843C369.585 300.892 364.949 301.946 358.627 303.421C356.098 304.053 351.673 305.528 350.408 305.95C340.925 309.533 340.293 313.115 336.289 313.326C332.074 313.747 343.665 331.661 343.665 331.661Z" fill="#DFBAC2"/>
<path d="M279.391 329.975C282.299 332.883 321.6 314.562 337.712 308.496C339.734 307.734 341.916 308.833 342.632 310.871L349.867 331.45C350.441 333.084 349.903 334.863 348.409 335.74C333.255 344.639 264.505 377.186 259.792 371.491C235.979 343.462 235.558 335.665 217.224 305.318C198.89 274.971 189.407 257.057 206.266 245.045C222.703 233.243 224.389 233.033 232.397 242.938C243.355 256.425 272.436 323.02 279.391 329.975Z" fill="#FF8C8C"/>
<path d="M155.69 190.673C152.95 197.417 131.455 201.843 135.459 224.182C139.674 246.52 175.288 226.711 175.288 226.711L182.032 192.992L170.441 184.351L155.69 190.673Z" fill="#333333"/>
<path d="M211.113 186.458C205.634 196.574 204.791 207.533 207.109 214.066C209.427 220.599 221.86 228.186 215.327 238.301C208.795 248.417 170.441 238.301 170.441 238.301L211.113 186.458Z" fill="#333333"/>
<path d="M205.633 196.785C201.84 211.537 196.993 231.347 209.848 232.4C222.703 233.454 235.136 251.999 236.4 274.76C237.665 297.52 222.492 325.127 224.178 353.578C225.864 382.239 224.178 389.193 224.178 389.193L160.796 375.027C160.796 375.027 138.619 380.342 134.826 357.582C130.822 334.822 120.918 307.214 120.918 307.214C120.918 307.214 121.55 331.239 120.918 346.412C120.285 361.586 96.4569 372.729 96.4569 372.729L89.3073 338.615C89.3073 338.615 89.3073 328.078 89.3073 305.739C89.0966 271.388 93.9437 237.88 115.017 228.818C136.091 219.545 166.015 222.917 166.858 218.913C167.701 214.909 172.337 179.293 172.337 179.293L205.633 196.785Z" fill="#DFBAC2"/>
<path d="M234.505 162.644C234.505 162.644 245.885 150 241.249 135.88C237.666 124.921 230.712 103.004 211.535 100.686C188.354 98.1568 234.505 162.644 234.505 162.644Z" fill="#333333"/>
<path d="M233.663 166.859C235.349 169.809 234.084 173.392 231.345 174.867L225.444 178.028C222.705 179.504 219.122 178.45 217.437 175.71C215.961 172.971 217.015 169.388 219.755 167.702L225.655 164.541C228.605 162.855 232.188 163.909 233.663 166.859Z" fill="#C90E00"/>
<path d="M236.402 137.566C233.241 118.599 223.969 99 197.416 99C169.599 99 154.426 122.182 153.794 137.566C153.162 152.95 155.69 162.644 156.744 165.806C157.798 168.967 170.653 177.186 172.971 186.88C175.921 196.363 236.402 137.566 236.402 137.566Z" fill="#333333"/>
<path d="M171.285 172.128C172.338 177.607 170.863 185.405 170.442 193.413C172.338 194.677 175.921 197.206 178.45 198.682C195.098 208.376 209.849 209.429 209.849 209.429C209.849 209.429 207.952 206.69 205.213 202.475L171.495 172.128C171.495 172.128 171.495 172.128 171.285 172.128Z" fill="#C6A1AB"/>
<path d="M170.442 172.971C172.338 178.45 173.392 185.826 182.243 192.991C191.094 200.157 205.424 209.429 210.06 209.429C214.485 209.429 218.068 210.694 225.022 199.103C231.976 187.512 237.034 182.243 237.455 170.442C237.877 158.64 242.513 134.615 227.972 125.764C217.225 119.231 199.523 122.182 190.251 131.876C180.768 141.359 180.557 144.942 177.396 160.115C177.396 160.115 169.599 149.578 166.438 149.157C163.277 148.735 160.748 150.632 162.434 157.165C164.12 163.487 165.806 162.644 166.016 165.805C166.227 169.177 166.648 172.339 168.334 173.603C170.02 175.078 170.442 172.971 170.442 172.971Z" fill="#DFBAC2"/>
<path d="M222.705 123.235C222.705 123.235 203.739 157.165 177.397 162.644L167.071 131.665L191.516 113.541L222.705 123.235Z" fill="#333333"/>
<path d="M217.436 124.5C217.436 124.5 228.605 143.467 239.563 149.157C239.563 149.157 241.881 122.814 226.709 110.38L217.436 124.5Z" fill="#333333"/>
<path d="M121.973 309.533C121.973 309.533 140.096 296.045 141.361 278.343C143.047 253.896 135.25 222.706 135.25 222.706L150.844 221.442C150.844 221.442 164.752 251.578 198.048 254.529C217.436 256.214 217.015 233.243 217.015 233.243C217.015 233.243 222.283 234.508 223.547 234.929C225.233 235.562 228.816 237.458 228.816 237.458C228.816 237.458 244.41 271.599 246.728 279.818C249.889 290.776 255.368 308.057 238.509 325.338C238.509 325.338 221.44 355.685 225.865 398.466C225.865 398.466 180.136 415.536 127.874 399.309C127.874 399.098 139.886 355.896 121.973 309.533Z" fill="white"/>
<path d="M190.381 255.827C191.07 250.082 164.817 229.881 151.892 221.072H151.892C148.448 221.072 123.744 221.072 129.775 231.987C123.743 247.883 123.48 285.478 120.01 324.762L122.568 391.786C122.75 396.566 126.293 400.548 131.02 401.285L176.307 408.346C182.338 383.261 195.264 331.024 198.71 322.751C203.019 312.411 189.519 263.008 190.381 255.827Z" fill="#FF8C8C"/>
<path d="M89.5205 305.739C89.3098 271.388 94.1565 237.88 115.23 228.818C121.552 226.078 128.506 224.603 135.25 223.549C136.303 227.764 147.051 256.215 145.576 278.975C144.311 296.677 121.973 309.954 121.973 309.954C125.556 319.227 121.131 307.636 121.131 307.636C121.131 307.636 121.763 331.661 121.131 346.834C120.498 362.008 93.2974 377.612 93.2974 377.612L89.5205 339.037C89.5205 338.615 89.5205 328.078 89.5205 305.739Z" fill="#FF8C8C"/>
<path d="M120.5 350.5C120.5 350.5 151.897 299.839 139.675 246.942C139.675 246.942 147.895 288.072 120.5 307.46L120.5 350.5Z" fill="#FF6161"/>
<path d="M185.614 100.686C180.767 102.371 154.847 110.591 149.367 144.52C147.682 155.268 150 172.338 155.69 190.884L170.652 193.623C170.652 193.623 172.127 182.033 171.916 177.185C171.916 177.185 155.9 170.231 157.375 150.21C158.851 130.4 176.552 119.442 176.552 119.442L185.614 100.686Z" fill="#333333"/>
<rect x="81.5443" y="386.947" width="67.7861" height="33.893" rx="7" transform="rotate(-105 81.5443 386.947)" fill="black"/>
<rect x="78.7191" y="376.404" width="44.2333" height="33.893" transform="rotate(-105 78.7191 376.404)" fill="#505050"/>
<circle cx="85.2393" cy="337.486" r="3.15952" transform="rotate(-105 85.2393 337.486)" fill="#3F3F3F"/>
<rect x="69.8554" y="330.011" width="5.74458" height="10.3402" rx="2.87229" transform="rotate(-105 69.8554 330.011)" fill="#C4C4C4" fill-opacity="0.5"/>
<circle cx="72.4407" cy="326.345" r="2.29783" transform="rotate(-105 72.4407 326.345)" fill="#1C1C1C"/>
<circle cx="76.8814" cy="325.155" r="1.14892" transform="rotate(-105 76.8814 325.155)" fill="#AEAEAE"/>
<path d="M66.1273 339.668C62.3341 341.144 65.706 371.491 74.9783 372.334C84.2507 372.966 85.515 359.9 81.5111 350.627C77.7178 341.144 74.1353 336.507 66.1273 339.668Z" fill="#DFBAC2"/>
<path d="M257.018 304.369C255.639 300.463 247.635 277.465 243.805 266.455L233.465 335.677L241.22 348.028C247.061 335.102 258.397 308.275 257.018 304.369Z" fill="#FF6161"/>
<path d="M152.766 219.636C153.226 215.27 171.049 237.637 178.9 239.456C178.9 253.933 145.478 235.242 139.255 237.444C137.244 231.029 152.307 224.002 152.766 219.636Z" fill="#FF6161"/>
<path d="M213.071 310.975C209.394 291.444 214.603 251.71 217.666 234.285C219.677 234.285 225.423 234.975 232.316 237.732C240.933 241.179 252.997 292.88 252.71 303.22C252.422 313.56 235.763 345.73 232.316 354.347C230.143 359.781 229.016 378.064 228.543 391.894C228.356 397.356 223.907 401.74 218.442 401.74H213.071C214.603 379.623 216.747 330.507 213.071 310.975Z" fill="#FF8C8C"/>
<path d="M208.706 231.442L207.327 231.125C207.816 231.125 208.275 231.236 208.706 231.442L228.582 236.008C224.261 241.321 215.925 251.984 215.138 254.574C215.139 255.046 215.117 255.208 215.083 254.966C215.069 254.87 215.088 254.738 215.138 254.574C215.132 251.382 214.073 234.008 208.706 231.442Z" fill="#FF6161"/>
<path d="M103.524 119.126C98.194 117.963 92.9623 121.189 91.8391 126.331C90.7158 131.474 94.1264 136.585 99.4567 137.748C104.787 138.912 110.019 135.686 111.142 130.543C112.265 125.401 108.855 120.289 103.524 119.126Z" fill="#FF8C8C"/>
<path d="M119.563 137.069C116.55 136.412 113.591 138.245 112.953 141.164C112.316 144.082 114.241 146.981 117.254 147.639C120.267 148.296 123.226 146.463 123.863 143.544C124.501 140.626 122.575 137.727 119.563 137.069Z" fill="#FF6161"/>
<path d="M148.341 41.3264C148.341 41.3264 170.074 56.1894 148.341 78.9793C148.341 78.9793 143.402 104.483 124.632 101.123C124.632 101.123 123.172 121.328 93.4933 109.653C93.4933 109.653 42.1676 139.379 21.1648 92.8083C21.1648 92.8083 -9.71653 84.8814 3.12564 65.0641C3.12564 65.0641 -4.77724 27.9713 27.8221 24.7402C27.8221 24.7402 27.5644 5.48297 57.329 0.614806C87.0937 -4.25336 89.0265 21.5091 93.4933 17.5457C97.9601 13.5822 132.535 3.67356 148.341 41.3264Z" fill="#FFCECE"/>
<path d="M29.4107 63.1657C29.4107 61.4486 29.6684 59.9031 30.1838 58.5294C30.6992 57.1556 31.3864 56.0395 32.3313 55.095C33.2762 54.1506 34.35 53.4637 35.6385 52.9486C36.927 52.4763 38.3444 52.2188 39.9335 52.2188C41.6086 52.2188 43.1118 52.4763 44.4004 52.9915C45.6889 53.5066 46.8056 54.2794 47.7075 55.2238C48.6095 56.1683 49.2967 57.3273 49.7692 58.6582C50.2416 59.989 50.4993 61.4915 50.4993 63.0799C50.4993 64.7112 50.2416 66.2137 49.7692 67.5445C49.2967 68.8754 48.6095 70.0344 47.7075 70.9789C46.8056 71.9233 45.6889 72.6961 44.4004 73.2112C43.1118 73.7264 41.6086 73.9839 39.9335 73.9839C38.3444 73.9839 36.927 73.7264 35.6385 73.2542C34.35 72.7819 33.2333 72.0521 32.3313 71.1077C31.3864 70.1632 30.6992 69.0471 30.1838 67.6733C29.6684 66.4284 29.4107 64.9258 29.4107 63.1657ZM34.0923 63.1657C34.0923 64.3678 34.2211 65.3981 34.5218 66.2996C34.8224 67.2011 35.209 67.9309 35.7244 68.489C36.2398 69.0471 36.8411 69.4764 37.5713 69.7769C38.3014 70.0345 39.0745 70.2062 39.9765 70.2062C40.9643 70.2062 41.8663 70.0344 42.5964 69.6481C43.3266 69.3046 43.9279 68.7895 44.4433 68.1456C44.9158 67.5016 45.2594 66.7718 45.5171 65.9132C45.7318 65.0546 45.8607 64.1102 45.8607 63.1228C45.8607 62.1354 45.7318 61.191 45.5171 60.3753C45.3023 59.5167 44.9158 58.7869 44.4433 58.143C43.9709 57.4991 43.3695 57.0268 42.5964 56.6834C41.8663 56.34 41.0073 56.1253 39.9765 56.1253C39.1175 56.1253 38.3014 56.2541 37.5713 56.5546C36.8411 56.8122 36.2398 57.2415 35.7244 57.8425C35.209 58.4435 34.8224 59.1304 34.5218 60.0319C34.2211 60.9334 34.0923 61.9637 34.0923 63.1657Z" fill="#FF6161"/>
<path d="M54.107 63.1657C54.107 61.4486 54.3647 59.9031 54.8801 58.5294C55.3955 57.1556 56.0827 56.0395 57.0276 55.095C57.9725 54.1506 59.0463 53.4637 60.3348 52.9486C61.6233 52.4763 63.0406 52.2188 64.6298 52.2188C66.3049 52.2188 67.8081 52.4763 69.0966 52.9915C70.3852 53.5066 71.5019 54.2794 72.4038 55.2238C73.3058 56.1683 73.993 57.3273 74.4654 58.6582C74.9379 59.989 75.1956 61.4915 75.1956 63.0799C75.1956 64.7112 74.9379 66.2137 74.4654 67.5445C73.993 68.8754 73.3058 70.0344 72.4038 70.9789C71.5019 71.9233 70.3852 72.6961 69.0966 73.2112C67.8081 73.7264 66.3049 73.9839 64.6298 73.9839C63.0406 73.9839 61.6233 73.7264 60.3348 73.2542C59.0463 72.7819 57.9295 72.0521 57.0276 71.1077C56.0827 70.1632 55.3955 69.0471 54.8801 67.6733C54.3647 66.4284 54.107 64.9258 54.107 63.1657ZM58.7885 63.1657C58.7885 64.3678 58.9174 65.3981 59.2181 66.2996C59.5187 67.2011 59.9053 67.9309 60.4207 68.489C60.9361 69.0471 61.5374 69.4764 62.2675 69.7769C62.9977 70.0345 63.7708 70.2062 64.6727 70.2062C65.6606 70.2062 66.5626 70.0344 67.2927 69.6481C68.0229 69.2617 68.6242 68.7895 69.1396 68.1456C69.612 67.5016 69.9557 66.7718 70.2134 65.9132C70.4281 65.0546 70.557 64.1102 70.557 63.1228C70.557 62.1354 70.4281 61.191 70.2134 60.3753C69.9986 59.5167 69.612 58.7869 69.1396 58.143C68.6671 57.4991 68.0658 57.0268 67.2927 56.6834C66.5196 56.34 65.7036 56.1253 64.6727 56.1253C63.8137 56.1253 62.9977 56.2541 62.2675 56.5546C61.5374 56.8122 60.9361 57.2415 60.4207 57.8425C59.9053 58.4006 59.5187 59.1304 59.2181 60.0319C58.9174 60.9334 58.7885 61.9637 58.7885 63.1657Z" fill="#FF6161"/>
<path d="M79.8345 52.8623C80.7364 52.6906 81.7243 52.5618 82.798 52.476C83.8718 52.3901 84.9456 52.3472 86.0193 52.3472C86.6206 52.3472 87.2219 52.3901 87.8232 52.433C88.4245 52.476 89.0258 52.5618 89.6272 52.6906C90.2285 52.8194 90.7868 52.9911 91.3022 53.2058C91.8176 53.4204 92.2901 53.7209 92.7196 54.0214C93.4497 54.5795 94.0081 55.3093 94.4376 56.1679C94.8671 57.0265 95.0818 58.0997 95.0818 59.3017C95.0818 60.5896 94.8241 61.7058 94.3517 62.6502C93.8792 63.5947 93.235 64.3245 92.4189 64.9255C91.6029 65.5265 90.658 65.9558 89.6272 66.2134C88.5963 66.471 87.4796 66.6427 86.3629 66.6427C86.277 66.6427 86.1052 66.6427 85.9334 66.6427C85.7616 66.6427 85.5469 66.6427 85.3321 66.5997C85.1174 66.5997 84.9026 66.5568 84.7308 66.5568C84.5161 66.5568 84.3872 66.5139 84.2584 66.5139V73.5972H79.7915V52.8623H79.8345ZM86.32 56.2538C85.8905 56.2538 85.5039 56.2537 85.1603 56.2967C84.8167 56.3396 84.559 56.3396 84.3013 56.3825V62.6073C84.3872 62.6073 84.516 62.6502 84.6449 62.6502C84.8167 62.6502 84.9885 62.6932 85.1603 62.6932C85.3321 62.6932 85.5039 62.7361 85.6757 62.7361C85.8475 62.7361 85.9764 62.7361 86.0623 62.7361C86.6636 62.7361 87.2219 62.6932 87.7373 62.6073C88.2527 62.5214 88.7252 62.3497 89.1117 62.0922C89.4983 61.8346 89.799 61.4911 90.0567 61.0618C90.2714 60.6326 90.4003 60.0745 90.4003 59.4305C90.4003 58.8295 90.3143 58.3144 90.0996 57.8851C89.8848 57.4558 89.5842 57.1553 89.2406 56.8977C88.897 56.6401 88.4245 56.4684 87.9521 56.3825C87.3937 56.2967 86.8783 56.2538 86.32 56.2538Z" fill="#FF6161"/>
<path d="M108.44 67.888C108.44 67.5017 108.311 67.1153 108.096 66.8148C107.838 66.5143 107.538 66.2567 107.151 65.9991C106.764 65.7416 106.292 65.5269 105.734 65.3552C105.218 65.1406 104.617 64.9688 104.016 64.7542C103.285 64.4966 102.598 64.239 101.868 63.8956C101.138 63.5522 100.494 63.1229 99.9353 62.6506C99.377 62.1355 98.9045 61.5774 98.5179 60.8905C98.1743 60.2037 97.9596 59.388 97.9596 58.4865C97.9596 57.4133 98.1314 56.5117 98.5179 55.739C98.9045 54.9663 99.4199 54.3223 100.064 53.8072C100.751 53.292 101.567 52.9057 102.512 52.6481C103.457 52.3905 104.488 52.2617 105.648 52.2617C106.979 52.2617 108.225 52.3905 109.427 52.6052C110.63 52.8627 111.575 53.1632 112.348 53.5925L110.931 57.2845C110.673 57.1557 110.372 56.984 109.986 56.8552C109.599 56.7264 109.17 56.5976 108.74 56.4688C108.268 56.34 107.752 56.2542 107.237 56.2112C106.679 56.1254 106.12 56.0824 105.562 56.0824C104.574 56.0824 103.801 56.2542 103.242 56.5976C102.684 56.941 102.426 57.4133 102.426 58.0572C102.426 58.4006 102.512 58.7011 102.641 58.9587C102.813 59.2163 103.028 59.4309 103.285 59.6456C103.543 59.8602 103.844 60.032 104.187 60.2037C104.531 60.3754 104.918 60.5042 105.304 60.633C105.691 60.7618 106.077 60.8905 106.464 61.0623C106.85 61.191 107.237 61.3628 107.623 61.4916C108.268 61.7491 108.912 62.0926 109.556 62.436C110.2 62.7794 110.759 63.2087 111.231 63.681C111.747 64.1532 112.133 64.7113 112.434 65.3123C112.735 65.9133 112.863 66.6002 112.863 67.4158C112.863 68.5749 112.649 69.5623 112.262 70.4209C111.876 71.2795 111.274 71.9663 110.544 72.5244C109.814 73.0825 108.955 73.4689 107.924 73.7265C106.893 73.984 105.777 74.1128 104.574 74.1128C103.758 74.1128 102.985 74.0699 102.255 73.984C101.524 73.8982 100.837 73.7694 100.193 73.6406C99.5917 73.5118 99.0334 73.3401 98.5609 73.2113C98.0884 73.0396 97.7019 72.9108 97.4442 72.7391L98.9045 68.8754C99.1193 69.0042 99.4199 69.133 99.8065 69.3047C100.193 69.4764 100.623 69.6052 101.095 69.7769C101.567 69.9057 102.083 70.0345 102.641 70.1633C103.2 70.2492 103.758 70.335 104.273 70.335C105.605 70.335 106.636 70.1633 107.323 69.7769C108.096 69.3047 108.44 68.7037 108.44 67.888Z" fill="#FF6161"/>
<path d="M115.355 71.6228C115.355 70.893 115.612 70.292 116.085 69.8627C116.557 69.4334 117.201 69.2188 117.975 69.2188C118.791 69.2188 119.435 69.4334 119.907 69.8627C120.38 70.292 120.637 70.8501 120.637 71.6228C120.637 72.3097 120.38 72.8678 119.907 73.34C119.435 73.7693 118.791 74.0269 117.975 74.0269C117.201 74.0269 116.557 73.8122 116.085 73.34C115.612 72.8678 115.355 72.3097 115.355 71.6228Z" fill="#FF6161"/>
<path d="M123.301 71.6228C123.301 70.893 123.558 70.292 124.031 69.8627C124.503 69.4334 125.147 69.2188 125.921 69.2188C126.737 69.2188 127.381 69.4334 127.853 69.8627C128.326 70.292 128.583 70.8501 128.583 71.6228C128.583 72.3097 128.326 72.8678 127.853 73.34C127.381 73.7693 126.737 74.0269 125.921 74.0269C125.147 74.0269 124.503 73.8122 124.031 73.34C123.515 72.8678 123.301 72.3097 123.301 71.6228Z" fill="#FF6161"/>
</svg>
