<svg width="219" height="240" viewBox="0 0 219 240" fill="none" xmlns="http://www.w3.org/2000/svg">
<path d="M188.498 108.727C183.245 92.7465 170.131 76.7656 164.23 70.7727L161.946 133.84L182.217 156.956C183.169 155.909 185.758 153.246 188.498 150.963C191.925 148.109 195.065 128.704 188.498 108.727Z" fill="#333333"/>
<path d="M93.4249 83.3292C94.7953 81.0462 100.277 74.0069 102.847 70.7727L115.694 81.9023C118.739 85.0414 124.83 91.605 124.83 92.7465C124.83 94.1734 122.546 104.447 119.691 109.869C116.836 115.291 109.983 127.848 102.847 127.277C95.7099 126.706 64.5875 107.871 64.5875 104.447C64.5875 101.022 86.8572 99.8809 90.5698 98.7394C94.2824 97.5979 91.9973 96.171 90.5698 92.7465C89.1423 89.322 91.7118 86.1829 93.4249 83.3292Z" fill="#333333"/>
<path d="M112.268 107.015C112.04 105.417 115.218 103.971 116.265 101.878C117.407 107.586 133.491 110.249 141.961 112.437L143.674 126.991C144.055 132.699 144.93 144.399 145.387 145.541C145.958 146.968 149.384 160.951 149.384 161.522C149.384 162.092 144.816 166.373 143.674 168.656C142.761 170.482 133.967 173.793 129.684 175.22C130.065 168.561 130.712 154.045 130.255 149.251C129.684 143.258 121.976 127.562 118.835 122.996C115.694 118.43 112.554 109.013 112.268 107.015Z" fill="#DFBAC2"/>
<path d="M128.459 68.6335L113.695 108.728C112.002 112.925 115.245 114.237 119.094 116.914C123.552 119.962 136.826 121.387 139.389 116.914L144.528 82.1874L128.459 68.6335Z" fill="#DFBAC2"/>
<path d="M144.245 164.376C143.331 166.202 134.918 171.034 130.826 173.222L102.275 240H161.946L160.519 227.444C158.71 217.836 154.98 197.764 154.523 194.34C153.952 190.059 145.387 162.093 144.245 164.376Z" fill="white"/>
<path d="M182.503 168.942C185.472 164.376 182.027 149.726 179.933 142.973C178.315 140.309 176.05 135.096 179.933 135.553C184.787 136.124 185.929 142.973 186.5 147.824C187.071 152.675 192.781 156.67 193.067 164.09C193.352 171.51 197.349 168.942 199.348 174.364C201.346 179.786 208.77 184.923 211.91 191.486C215.051 198.05 213.623 200.618 215.907 205.184C218.191 209.75 217.335 208.323 218.762 214.031C220.19 219.738 214.765 220.309 213.623 225.16C212.481 230.012 209.626 235.148 206.2 236.29C202.774 237.431 195.922 235.719 191.068 235.148C186.214 234.578 179.933 222.307 182.503 224.019C185.072 225.731 193.067 224.019 198.777 220.88C204.487 217.741 197.92 210.321 197.349 206.04C196.778 201.76 182.217 198.621 178.22 197.194C175.022 196.052 172.795 192.247 171.939 191.486C172.415 190.44 173.709 187.662 175.08 184.923C176.793 181.498 178.791 174.649 182.503 168.942Z" fill="#FF8C8C"/>
<path d="M185.603 160.666C186.06 157.698 182.558 148.204 180.749 143.829V168.085C180.749 171.795 176.467 178.074 173.326 186.349C170.814 192.97 172.279 193.674 173.326 193.198C173.802 192.723 175.096 191.087 176.467 188.347C178.18 184.923 180.749 182.925 185.603 174.934C190.457 166.944 185.032 164.376 185.603 160.666Z" fill="#FF6161"/>
<path d="M170.225 127.848C167.941 125.565 155.759 120.809 149.954 118.716C147.669 117.876 140.817 100.166 139.675 99.5957C138.534 99.025 139.104 103.306 139.675 105.874C140.247 108.442 142.816 117.289 143.387 120.999C143.958 124.709 143.387 142.687 140.817 150.392C138.248 158.097 143.958 159.81 146.242 167.8C148.526 175.791 147.384 195.196 149.954 201.76C152.523 208.323 151.667 210.892 154.522 216.028C156.806 220.138 160.232 232.961 161.66 238.858C167.179 239.334 178.562 240 179.932 238.858C181.645 237.432 178.219 232.295 177.077 227.729C175.935 223.163 173.651 221.451 170.225 213.46C166.799 205.47 170.225 195.196 171.938 193.199C173.651 191.201 175.078 180.642 178.219 176.647C181.36 172.652 183.073 166.088 184.215 161.522C185.128 157.869 180.598 143.448 178.219 136.694C176.506 134.697 172.509 130.131 170.225 127.848Z" fill="#FF8C8C"/>
<path d="M144.817 136.409C142.076 137.55 143.103 146.682 141.105 150.392C144.531 118.43 135.394 102.164 139.678 99.3099C141.063 98.387 147.672 115.862 148.243 117.859C148.814 119.857 153.953 124.994 157.95 126.991C161.947 128.989 162.804 140.404 161.947 139.833L161.947 139.833C161.09 139.262 156.808 136.408 152.525 132.984C148.243 129.56 148.243 134.982 144.817 136.409Z" fill="#D80404"/>
<path d="M118.263 111.581C115.522 108.842 113.981 105.303 117.407 98.7397C112.553 100.737 107.642 103.933 106.272 105.303C104.559 107.016 92.5674 102.449 89.7123 99.5958C86.8572 96.7422 84.0021 97.5982 77.4354 95.6004C70.8687 93.6026 71.7252 95.6004 67.4426 97.5982C63.16 99.5959 56.3078 102.449 50.5986 99.5958C44.8894 96.7422 46.315 94.7443 44.8874 94.7443C43.4598 94.7443 38.0352 89.3223 34.8946 87.3247C31.754 85.3271 28.8989 82.7587 27.7568 82.1879C26.6148 81.6172 26.3293 82.7587 27.7568 85.0417C29.1844 87.3247 31.1829 92.7468 31.4685 96.1713C31.754 99.5958 25.7583 105.874 19.7626 107.301C13.7669 108.728 9.48426 103.306 7.7712 100.737C6.05815 98.1688 5.77264 93.8882 4.05958 94.7443C2.34653 95.6004 2.06201 99.0249 0.634465 102.449C-0.793081 105.874 0.634465 109.013 0.634465 117.289C0.634465 125.565 11.7693 136.409 22.3332 141.831C32.897 147.253 29.7564 145.826 31.755 149.536C33.7535 153.246 50.5986 159.81 53.1672 159.524C55.7359 159.239 61.1624 168.656 60.5914 170.654C60.0204 172.651 53.1672 185.779 49.171 192.628C45.1748 199.477 50.5986 204.043 50.5986 218.311C50.5986 232.58 48.5991 226.016 46.315 232.295C44.0309 238.573 49.4556 236.29 53.1672 238.002C56.1365 239.372 89.9979 239.524 106.557 239.429C107.033 238.288 108.442 235.263 110.269 232.295C112.553 228.585 125.687 189.203 131.682 182.925C137.678 176.647 132.253 144.399 132.824 136.409C133.395 128.418 127.4 124.709 124.544 120.428C121.689 116.147 121.689 115.006 118.263 111.581Z" fill="#FF8C8C"/>
<path d="M121.691 117.004C118.265 116.433 105.893 117.574 99.4217 119.857C97.366 113.009 106.557 99.8812 117.12 98.7397C117.596 100.642 115.981 104.276 115.981 107.016C115.981 110.44 126.09 117.737 121.691 117.004Z" fill="#FF6161"/>
<path d="M75.901 98.8501C75.8411 98.7157 75.7818 98.5836 75.7234 98.4541C75.7901 98.5684 75.8492 98.7008 75.901 98.8501C79.4513 106.813 85.4956 123.255 82.5756 128.418C78.864 134.982 68.8712 142.973 66.0161 148.68C63.161 154.387 59.4494 163.805 59.1638 165.517C58.8783 167.229 49.742 157.812 44.8884 155.529C40.0347 153.246 32.326 154.673 32.6115 148.68C32.897 142.687 42.0343 139.833 44.8884 140.404C47.7425 140.975 55.1677 142.116 59.1638 137.836C63.16 133.555 69.4412 130.131 71.1542 125.85C72.8101 121.712 77.4024 103.176 75.901 98.8501Z" fill="#FF6161"/>
<path d="M154.239 169.798C154.239 168.885 153.191 164.376 152.524 163.805C149.1 162.664 149.098 170.084 148.813 171.225C148.527 172.367 150.24 175.506 149.669 175.22C149.098 174.935 144.532 175.22 143.389 175.22C142.245 175.22 141.389 178.93 141.104 180.357C140.877 181.499 143.294 182.355 144.532 182.64C143.96 182.925 142.703 183.496 142.246 183.496C141.676 183.496 141.391 185.202 141.106 186.911L141.104 186.921C140.819 188.633 143.961 189.774 143.389 189.774C142.818 189.774 142.818 192.333 142.818 193.194V193.199C142.818 194.055 145.388 195.767 144.532 195.767C143.675 195.767 143.961 196.909 143.961 198.336C143.961 199.763 150.813 205.185 152.811 207.182C154.81 209.18 168.229 210.321 170.227 210.892C172.226 211.463 180.22 221.166 181.362 223.449C182.276 225.275 185.169 225.351 186.502 225.161C197.636 225.446 201.634 220.88 202.49 218.312C203.347 215.744 198.493 205.755 197.065 203.758C195.638 201.76 183.075 196.623 179.935 196.053C176.794 195.482 171.084 190.916 170.227 190.06C169.371 189.204 166.23 180.642 165.659 180.357C165.088 180.072 157.38 174.65 156.523 174.364C155.667 174.079 154.239 170.94 154.239 169.798Z" fill="#DFBAC2"/>
<path d="M39.7485 22.8301C40.6621 21.232 44.1661 17.6674 46.6007 19.4056C48.6953 20.901 47.4564 24.2569 47.1709 25.9692C46.8854 27.6814 41.7463 31.962 40.3187 33.1035L28.8984 42.2355C28.6128 45.0893 27.9278 51.2533 27.4716 53.0797C26.9013 55.3627 31.1832 62.2117 32.8955 61.641C34.6078 61.0702 39.7485 62.7825 39.7485 63.6386C39.7485 64.4947 39.7485 66.4923 36.8926 68.7753C34.0368 71.0583 31.7534 69.9168 30.3259 69.9168C28.8984 69.9168 24.6157 73.0559 24.0447 74.4828C23.4737 75.9097 26.8998 82.4733 27.4716 83.3294C28.0433 84.1855 31.1832 88.7515 32.8955 91.0345C34.6078 93.3175 34.6093 96.4566 34.6093 98.1689C34.6093 99.8811 28.6128 105.874 20.3331 107.301C12.0533 108.728 8.3417 102.45 7.20041 101.023C6.05913 99.5958 4.91559 96.4566 4.05906 92.7468C3.20254 89.0369 3.48804 78.7634 2.0605 74.4828C0.632954 70.2022 2.06125 66.4923 1.20472 59.6433C0.348193 52.7944 4.91634 48.2284 7.20041 44.5185C9.48449 40.8086 14.9092 32.2474 16.6222 28.2522C18.3353 24.2569 24.0455 23.1154 25.473 22.5447C26.615 22.0881 27.2812 23.1154 27.4716 23.6862C28.0426 23.4008 29.1846 23.9716 31.1832 24.2569C32.782 24.4852 34.1334 25.4935 34.6093 25.9692C34.6093 24.8277 37.7499 24.2569 38.6064 23.9716C39.2916 23.7433 39.6533 23.1154 39.7485 22.8301Z" fill="#DFBAC2"/>
<path d="M19.4771 38.2398C18.5635 39.8379 15.8606 40.9985 14.6234 41.379C14.6234 42.2349 17.193 41.379 18.3351 41.0937C19.4771 40.8085 23.4742 33.674 23.7597 32.5325C23.9881 31.6193 27.281 30.63 28.8989 30.2495C28.8037 29.9641 28.4421 29.2792 27.7569 28.8226C26.9003 28.2519 26.9003 26.8249 26.6148 26.2541C26.3293 25.6834 26.3293 27.1102 25.7583 27.681C25.1873 28.2517 22.9032 31.3909 22.0467 32.8177C21.1901 34.2446 20.6191 36.2422 19.4771 38.2398Z" fill="#D3A6B0"/>
<path d="M34.3236 29.6787C34.7804 28.9938 34.8946 27.1103 34.8946 26.2541C35.4656 25.1125 36.3221 26.2541 36.6076 27.1104C36.8931 27.9666 38.8917 29.108 38.8917 29.6787C38.8917 30.2495 31.754 31.391 31.754 30.8202C31.754 30.2495 33.7525 30.5349 34.3236 29.6787Z" fill="#D3A6B0"/>
<path d="M42.8888 23.1151C42.2036 22.6585 40.5096 22.9249 39.7482 23.1151C41.4613 20.5466 45.4584 23.1151 46.0294 23.9713C46.6005 24.8276 45.4584 27.9666 44.8874 28.5373C44.3164 29.1081 44.3164 27.9666 44.3164 26.5397C44.3164 25.1128 43.7454 23.6859 42.8888 23.1151Z" fill="#D3A6B0"/>
<path d="M37.1807 67.9193C36.7239 68.1476 33.7546 66.6826 32.327 65.9216C30.3285 67.0631 32.327 70.2022 33.4691 70.4876C34.6111 70.773 37.7517 67.6339 37.1807 67.9193Z" fill="#D3A6B0"/>
<path d="M21.1911 75.339C19.3638 76.9371 15.1002 73.9121 13.1968 72.1999C10.6272 72.4852 12.3403 77.0512 14.6244 79.0489C16.9084 81.0465 23.4751 75.9097 23.7606 75.0536C24.0462 74.1975 26.9012 71.0584 26.0447 71.0584C25.1882 71.0584 23.4751 73.3414 21.1911 75.339Z" fill="#D3A6B0"/>
<rect x="20.0481" y="29.679" width="67.3801" height="33.6742" rx="7" fill="black"/>
<rect x="30.8974" y="29.679" width="43.9684" height="33.6742" fill="#505050"/>
<ellipse cx="66.5861" cy="45.9453" rx="3.1406" ry="3.13912" fill="#3F3F3F"/>
<rect x="77.7209" y="33.1035" width="5.71018" height="10.2735" rx="2.85509" fill="#C4C4C4" fill-opacity="0.5"/>
<ellipse cx="80.576" cy="36.5281" rx="2.28407" ry="2.28299" fill="#1C1C1C"/>
<ellipse cx="80.576" cy="41.0939" rx="1.14204" ry="1.1415" fill="#AEAEAE"/>
<path d="M144.66 83.7773C144.66 83.7773 142.996 93.0669 141.32 93.2739C138.534 106.73 116.839 99.8814 116.839 99.8814L119.406 91.6055L144.66 83.7773Z" fill="#C6A1AB"/>
<path d="M99.652 36.6357C99.652 36.6357 97.4157 65.6781 102.13 84.5999C106.845 103.522 117.355 96.3265 122.123 95.0176C126.891 93.7088 139.889 88.3858 143.629 85.9169C147.369 83.448 146.534 68.202 151.47 56.2754C156.513 44.3919 153.856 27.7902 153.856 27.7902C153.856 27.7902 123.148 18.2728 120.267 20.4667C117.473 22.4469 103.377 16.2695 99.652 36.6357Z" fill="#DFBAC2"/>
<path d="M116.913 7.15711C120.958 6.03453 135.797 7.63504 144.743 25.3795C155.272 46.2643 141.045 35.7762 141.045 35.7762C141.045 35.7762 120.129 32.3521 108.802 36.171C97.3689 39.947 81.9612 57.2615 92.9451 33.4094C96.8446 24.9708 104.458 10.396 116.913 7.15711Z" fill="#333333"/>
<path d="M145.672 54.5065C145.384 29.9225 109.461 31.5822 109.461 31.5822C125.874 -6.64036 181.634 11.8557 175.512 47.3946C169.39 82.9334 184.652 90.4501 183.013 114.258C181.375 138.065 149.03 147.029 135.679 137.55C127.4 117.289 145.96 79.0905 145.672 54.5065Z" fill="#333333"/>
</svg>
